<?xml version="1.0" encoding="utf-8"?>
<!-- Generator: Adobe Illustrator 16.0.0, SVG Export Plug-In . SVG Version: 6.00 Build 0)  -->
<!DOCTYPE svg PUBLIC "-//W3C//DTD SVG 1.1//EN" "http://www.w3.org/Graphics/SVG/1.1/DTD/svg11.dtd">
<svg version="1.1" id="Layer_1" xmlns="http://www.w3.org/2000/svg" xmlns:xlink="http://www.w3.org/1999/xlink" x="0px" y="0px"
	 width="32px" height="32px" viewBox="0 0 32 32" enable-background="new 0 0 32 32" xml:space="preserve">
<g>
	<path d="M27.832,22.311c-0.006-1.435-0.01-3.175-0.01-4.91c0-2.42-0.004-6.333-0.004-7.885c0-1.011-0.819-0.956-1.359-0.638
		c-1.886,1.1-5.555,3.306-6.059,3.548c-0.377,0.181-0.642,0.488-0.642,0.949c0,1.148,0.168,2.687,0.168,3.981v0.015
		c0,1.954-0.312,3.478-1.77,4.29c-0.882,0.486-2.358,0.367-3.693-0.982C10.05,16.211,13.16,5.511,24.369,3.881
		c0.238-0.034,0.432-0.067,0.587-0.094h-0.002c0.265-0.041,0.464-0.227,0.464-0.501c0-0.23-0.157-0.404-0.361-0.485
		c0,0-0.222-0.086-0.344-0.134c-0.594-0.22-5.322-1.922-6.911-2.519c-0.599-0.226-1.378-0.137-1.64-0.083
		C2.274,3.1,0.481,19.979,10.593,26.619c0.106,0.07,0.554,0.343,1.047,0.055c1.375-0.8,5.375-3.191,7.02-4.099
		c3.538-1.946,6.156-1.657,7.445,0.112c0.875,1.207,0.797,2.896,0.021,3.929c-0.937,1.249-2.679,1.405-3.585,0.375
		c-0.667-0.763-1.823-1.386-3.009-1.153c-1.273,0.245-2.386,1.135-2.528,2.548c-0.167,1.673,0.979,3.134,2.688,3.492
		c3.812,0.799,8.143-2.385,8.143-7.634C27.834,24.124,27.832,22.443,27.832,22.311"/>
</g>
</svg>
